<svg xmlns="http://www.w3.org/2000/svg" xmlns:xlink="http://www.w3.org/1999/xlink" viewBox="0 0 80 80"><defs><style>.cls-1,.cls-3,.cls-4{fill:none;}.cls-2{fill:#fff;}.cls-3,.cls-4{stroke:#1d1d1b;}.cls-3{stroke-width:0.44px;}.cls-4{stroke-width:0.27px;}.cls-5{fill:url(#RED_M100);}</style><pattern id="RED_M100" data-name="RED_M100" width="10.59" height="9.43" patternTransform="translate(17.94)" patternUnits="userSpaceOnUse" viewBox="0 0 10.59 9.43"><rect class="cls-1" width="10.59" height="9.43"/><rect class="cls-2" width="10.59" height="9.43"/><path class="cls-3" d="M.22-2.46A2.66,2.66,0,0,1,2.65-4,2.65,2.65,0,0,1,5.07-2.46"/><path class="cls-4" d="M4.43-2.32a2,2,0,0,0-1.78-1.1A2,2,0,0,0,.87-2.32"/><path class="cls-4" d="M3.94-2.09a1.45,1.45,0,0,0-1.29-.78,1.45,1.45,0,0,0-1.29.78"/><path class="cls-4" d="M1.73-1.83a1,1,0,0,1,.92-.59,1,1,0,0,1,.92.59"/><path class="cls-4" d="M3.2-1.44A.55.55,0,0,0,2.65-2a.57.57,0,0,0-.56.53"/><path class="cls-3" d="M5.51-2.46A2.66,2.66,0,0,1,7.94-4a2.66,2.66,0,0,1,2.43,1.59"/><path class="cls-4" d="M9.72-2.32a2,2,0,0,0-1.78-1.1,2,2,0,0,0-1.78,1.1"/><path class="cls-4" d="M9.23-2.09a1.45,1.45,0,0,0-1.29-.78,1.45,1.45,0,0,0-1.29.78"/><path class="cls-4" d="M7-1.83a1,1,0,0,1,.92-.59,1,1,0,0,1,.92.59"/><path class="cls-4" d="M8.5-1.44A.57.57,0,0,0,7.94-2a.57.57,0,0,0-.56.53"/><path class="cls-3" d="M-2.42-.89A2.63,2.63,0,0,1,0-2.48,2.66,2.66,0,0,1,2.43-.89"/><path class="cls-4" d="M1.78-.75A2,2,0,0,0,0-1.85,2,2,0,0,0-1.78-.75"/><path class="cls-4" d="M1.29-.52A1.45,1.45,0,0,0,0-1.3a1.45,1.45,0,0,0-1.29.78"/><path class="cls-4" d="M-.92-.25A1,1,0,0,1,0-.85a1,1,0,0,1,.92.59"/><path class="cls-4" d="M.56.13A.57.57,0,0,0,0-.4.55.55,0,0,0-.55.13"/><path class="cls-3" d="M2.87-.89A2.65,2.65,0,0,1,5.29-2.48,2.66,2.66,0,0,1,7.72-.89"/><path class="cls-4" d="M7.07-.75a2,2,0,0,0-1.78-1.1A2,2,0,0,0,3.51-.75"/><path class="cls-4" d="M6.58-.52A1.44,1.44,0,0,0,5.29-1.3,1.45,1.45,0,0,0,4-.52"/><path class="cls-4" d="M4.37-.25a1,1,0,0,1,.92-.6,1,1,0,0,1,.93.59"/><path class="cls-4" d="M5.85.13A.57.57,0,0,0,5.29-.4a.57.57,0,0,0-.55.53"/><path class="cls-3" d="M8.16-.89a2.66,2.66,0,0,1,2.43-1.59A2.65,2.65,0,0,1,13-.89"/><path class="cls-4" d="M12.37-.75a2,2,0,0,0-1.78-1.1A2,2,0,0,0,8.81-.75"/><path class="cls-4" d="M11.88-.52a1.45,1.45,0,0,0-1.29-.78A1.44,1.44,0,0,0,9.3-.52"/><path class="cls-4" d="M9.66-.25a1,1,0,0,1,.93-.6,1,1,0,0,1,.92.59"/><path class="cls-4" d="M11.14.13a.56.56,0,0,0-.55-.53A.57.57,0,0,0,10,.13"/><path class="cls-3" d="M.22.68a2.64,2.64,0,0,1,4.85,0"/><path class="cls-4" d="M4.43.82A2,2,0,0,0,.87.82"/><path class="cls-4" d="M3.94,1.05a1.46,1.46,0,0,0-2.58,0"/><path class="cls-4" d="M1.73,1.32a1,1,0,0,1,1.84,0"/><path class="cls-4" d="M3.2,1.7a.55.55,0,0,0-.55-.53.57.57,0,0,0-.56.53"/><path class="cls-3" d="M5.51.68a2.65,2.65,0,0,1,4.86,0"/><path class="cls-4" d="M9.72.82a2,2,0,0,0-3.56,0"/><path class="cls-4" d="M9.23,1.05a1.46,1.46,0,0,0-2.58,0"/><path class="cls-4" d="M7,1.32a1,1,0,0,1,1.84,0"/><path class="cls-4" d="M8.5,1.7a.56.56,0,0,0-1.12,0"/><path class="cls-3" d="M-2.42,2.25A2.63,2.63,0,0,1,0,.66,2.66,2.66,0,0,1,2.43,2.25"/><path class="cls-4" d="M1.78,2.39A2,2,0,0,0,0,1.29a2,2,0,0,0-1.78,1.1"/><path class="cls-4" d="M1.29,2.62A1.47,1.47,0,0,0,0,1.84a1.47,1.47,0,0,0-1.29.78"/><path class="cls-4" d="M-.92,2.89A1,1,0,0,1,0,2.29a1,1,0,0,1,.92.6"/><path class="cls-4" d="M.56,3.27A.57.57,0,0,0,0,2.74a.55.55,0,0,0-.55.53"/><path class="cls-3" d="M2.87,2.25a2.64,2.64,0,0,1,4.85,0"/><path class="cls-4" d="M7.07,2.39a2,2,0,0,0-3.56,0"/><path class="cls-4" d="M6.58,2.62A1.46,1.46,0,0,0,4,2.62"/><path class="cls-4" d="M4.37,2.89a1,1,0,0,1,1.85,0"/><path class="cls-4" d="M5.85,3.27a.56.56,0,0,0-1.11,0"/><path class="cls-3" d="M8.16,2.25a2.64,2.64,0,0,1,4.85,0"/><path class="cls-4" d="M12.37,2.39a2,2,0,0,0-1.78-1.1,2,2,0,0,0-1.78,1.1"/><path class="cls-4" d="M11.88,2.62a1.46,1.46,0,0,0-2.58,0"/><path class="cls-4" d="M9.66,2.89a1,1,0,0,1,.93-.6,1,1,0,0,1,.92.6"/><path class="cls-4" d="M11.14,3.27a.56.56,0,0,0-.55-.53.57.57,0,0,0-.56.53"/><path class="cls-3" d="M.22,3.83a2.64,2.64,0,0,1,4.85,0"/><path class="cls-4" d="M4.43,4A2,2,0,0,0,.87,4"/><path class="cls-4" d="M3.94,4.19a1.46,1.46,0,0,0-2.58,0"/><path class="cls-4" d="M1.73,4.46a1,1,0,0,1,1.84,0"/><path class="cls-4" d="M3.2,4.84a.55.55,0,0,0-.55-.53.57.57,0,0,0-.56.53"/><path class="cls-3" d="M5.51,3.83a2.65,2.65,0,0,1,4.86,0"/><path class="cls-4" d="M9.72,4A2,2,0,0,0,6.16,4"/><path class="cls-4" d="M9.23,4.19a1.46,1.46,0,0,0-2.58,0"/><path class="cls-4" d="M7,4.46a1,1,0,0,1,1.84,0"/><path class="cls-4" d="M8.5,4.84a.56.56,0,0,0-1.12,0"/><path class="cls-3" d="M-2.42,5.4A2.63,2.63,0,0,1,0,3.8,2.65,2.65,0,0,1,2.43,5.4"/><path class="cls-4" d="M1.78,5.53A2,2,0,0,0,0,4.44,2,2,0,0,0-1.78,5.53"/><path class="cls-4" d="M1.29,5.76A1.47,1.47,0,0,0,0,5a1.47,1.47,0,0,0-1.29.78"/><path class="cls-4" d="M-.92,6A1,1,0,0,1,0,5.43,1,1,0,0,1,.92,6"/><path class="cls-4" d="M.56,6.41A.57.57,0,0,0,0,5.88a.55.55,0,0,0-.55.53"/><path class="cls-3" d="M2.87,5.4a2.64,2.64,0,0,1,4.85,0"/><path class="cls-4" d="M7.07,5.53a2,2,0,0,0-3.56,0"/><path class="cls-4" d="M6.58,5.76A1.46,1.46,0,0,0,4,5.76"/><path class="cls-4" d="M4.37,6A1,1,0,0,1,6.22,6"/><path class="cls-4" d="M5.85,6.41a.56.56,0,0,0-1.11,0"/><path class="cls-3" d="M8.16,5.4A2.64,2.64,0,0,1,13,5.4"/><path class="cls-4" d="M12.37,5.53a2,2,0,0,0-1.78-1.09A2,2,0,0,0,8.81,5.53"/><path class="cls-4" d="M11.88,5.76a1.46,1.46,0,0,0-2.58,0"/><path class="cls-4" d="M9.66,6a1,1,0,0,1,.93-.6,1,1,0,0,1,.92.6"/><path class="cls-4" d="M11.14,6.41a.56.56,0,0,0-.55-.53.57.57,0,0,0-.56.53"/><path class="cls-3" d="M.22,7A2.64,2.64,0,0,1,5.07,7"/><path class="cls-4" d="M4.43,7.1a2,2,0,0,0-3.56,0"/><path class="cls-4" d="M3.94,7.33a1.46,1.46,0,0,0-2.58,0"/><path class="cls-4" d="M1.73,7.6a1,1,0,0,1,1.84,0"/><path class="cls-4" d="M3.2,8a.54.54,0,0,0-.55-.53A.56.56,0,0,0,2.09,8"/><path class="cls-3" d="M5.51,7a2.65,2.65,0,0,1,4.86,0"/><path class="cls-4" d="M9.72,7.1a2,2,0,0,0-3.56,0"/><path class="cls-4" d="M9.23,7.33a1.46,1.46,0,0,0-2.58,0"/><path class="cls-4" d="M7,7.6a1,1,0,0,1,1.84,0"/><path class="cls-4" d="M8.5,8A.56.56,0,0,0,7.38,8"/><path class="cls-3" d="M.22,10.11a2.64,2.64,0,0,1,4.85,0"/><path class="cls-4" d="M4.43,10.24a2,2,0,0,0-3.56,0"/><path class="cls-4" d="M3.94,10.47a1.46,1.46,0,0,0-2.58,0"/><path class="cls-4" d="M1.73,10.74a1,1,0,0,1,1.84,0"/><path class="cls-4" d="M3.2,11.13a.54.54,0,0,0-.55-.53.56.56,0,0,0-.56.53"/><path class="cls-3" d="M5.51,10.11a2.65,2.65,0,0,1,4.86,0"/><path class="cls-4" d="M9.72,10.24a2,2,0,0,0-3.56,0"/><path class="cls-4" d="M9.23,10.47a1.46,1.46,0,0,0-2.58,0"/><path class="cls-4" d="M7,10.74a1,1,0,0,1,1.84,0"/><path class="cls-4" d="M8.5,11.13a.56.56,0,0,0-1.12,0"/><path class="cls-3" d="M-2.42,8.54A2.62,2.62,0,0,1,0,7,2.64,2.64,0,0,1,2.43,8.54"/><path class="cls-4" d="M1.78,8.67A2,2,0,0,0,0,7.58,2,2,0,0,0-1.78,8.67"/><path class="cls-4" d="M1.29,8.9A1.47,1.47,0,0,0,0,8.12a1.47,1.47,0,0,0-1.29.78"/><path class="cls-4" d="M-.92,9.17A1,1,0,0,1,0,8.58a1,1,0,0,1,.92.59"/><path class="cls-4" d="M.56,9.56A.56.56,0,0,0,0,9a.54.54,0,0,0-.55.53"/><path class="cls-3" d="M2.87,8.54a2.64,2.64,0,0,1,4.85,0"/><path class="cls-4" d="M7.07,8.67a2,2,0,0,0-3.56,0"/><path class="cls-4" d="M6.58,8.9A1.46,1.46,0,0,0,4,8.9"/><path class="cls-4" d="M4.37,9.17a1,1,0,0,1,1.85,0"/><path class="cls-4" d="M5.85,9.56a.56.56,0,0,0-1.11,0"/><path class="cls-3" d="M8.16,8.54a2.64,2.64,0,0,1,4.85,0"/><path class="cls-4" d="M12.37,8.67a2,2,0,0,0-1.78-1.09A2,2,0,0,0,8.81,8.67"/><path class="cls-4" d="M11.88,8.9a1.46,1.46,0,0,0-2.58,0"/><path class="cls-4" d="M9.66,9.17a1,1,0,0,1,.93-.59,1,1,0,0,1,.92.59"/><path class="cls-4" d="M11.14,9.56A.55.55,0,0,0,10.59,9a.56.56,0,0,0-.56.53"/></pattern></defs><title>Asset 3</title><g id="Layer_2" data-name="Layer 2"><g id="Layer_1-2" data-name="Layer 1"><rect class="cls-5" width="80" height="80"/></g></g></svg>