<svg xmlns="http://www.w3.org/2000/svg" xmlns:xlink="http://www.w3.org/1999/xlink" viewBox="0 0 80 80"><defs><style>.cls-1,.cls-3{fill:none;}.cls-2{fill:#fff;}.cls-3{stroke:#1d1d1b;stroke-width:0.34px;}.cls-4{fill:url(#RED_Y100);}</style><pattern id="RED_Y100" data-name="RED_Y100" width="10.58" height="10.58" patternUnits="userSpaceOnUse" viewBox="0 0 10.58 10.58"><rect class="cls-1" width="10.58" height="10.58"/><rect class="cls-2" width="10.58" height="10.58"/><polygon class="cls-3" points="10.1 5.29 5.29 10.1 0.48 5.29 5.29 0.48 10.1 5.29"/><path class="cls-3" d="M1.44,5.29,5.29,9.14,9.14,5.29,5.29,1.44Z"/><polygon class="cls-3" points="15.39 0 10.58 4.81 5.77 0 10.58 -4.81 15.39 0"/><path class="cls-3" d="M6.73,0c.7.69,3.16,3.15,3.85,3.85L14.43,0,10.58-3.85Z"/><polygon class="cls-3" points="4.81 10.58 0 15.39 -4.81 10.58 0 5.77 4.81 10.58"/><path class="cls-3" d="M-3.85,10.58,0,14.43l3.85-3.85L0,6.73Z"/><polygon class="cls-3" points="15.39 10.58 10.58 15.39 5.77 10.58 10.58 5.77 15.39 10.58"/><path class="cls-3" d="M6.73,10.58l3.85,3.85,3.85-3.85L10.58,6.73Z"/><polygon class="cls-3" points="4.81 0 0 4.81 -4.81 0 0 -4.81 4.81 0"/><path class="cls-3" d="M-3.85,0C-3.16.69-.69,3.15,0,3.85.69,3.15,3.16.69,3.85,0L0-3.85Z"/><polygon class="cls-3" points="4.81 5.29 0 10.1 -4.81 5.29 0 0.48 4.81 5.29"/><path class="cls-3" d="M-3.85,5.29,0,9.14,3.85,5.29,0,1.44C-.69,2.14-3.16,4.6-3.85,5.29Z"/><polygon class="cls-3" points="10.1 0 5.29 4.81 0.48 0 5.29 -4.81 10.1 0"/><path class="cls-3" d="M1.44,0c.7.69,3.16,3.15,3.85,3.85L9.14,0,5.29-3.85C4.6-3.16,2.14-.69,1.44,0Z"/><polygon class="cls-3" points="10.1 10.58 5.29 15.39 0.48 10.58 5.29 5.77 10.1 10.58"/><path class="cls-3" d="M1.44,10.58l3.85,3.85,3.85-3.85L5.29,6.73C4.6,7.43,2.14,9.89,1.44,10.58Z"/><polygon class="cls-3" points="15.39 5.29 10.58 10.1 5.77 5.29 10.58 0.48 15.39 5.29"/><path class="cls-3" d="M6.73,5.29l3.85,3.85,3.85-3.85L10.58,1.44Z"/></pattern></defs><title>Asset 1</title><g id="Layer_2" data-name="Layer 2"><g id="Layer_1-2" data-name="Layer 1"><rect class="cls-4" width="80" height="80"/></g></g></svg>